<svg width="23" height="22" viewBox="0 0 23 22" fill="none" xmlns="http://www.w3.org/2000/svg">
<path d="M0.925 11C0.925 16.8427 5.65733 21.575 11.5 21.575C17.3427 21.575 22.075 16.8427 22.075 11C22.075 5.15733 17.3427 0.425 11.5 0.425C5.65733 0.425 0.925 5.15733 0.925 11ZM18.9923 16.6438C17.2713 18.9102 14.5526 20.375 11.5 20.375C8.44738 20.375 5.72866 18.9102 4.00771 16.6437C5.72866 14.3773 8.44738 12.9125 11.5 12.9125C14.5526 12.9125 17.2713 14.3773 18.9923 16.6438ZM2.125 11C2.125 5.81767 6.31767 1.625 11.5 1.625C16.6823 1.625 20.875 5.81767 20.875 11C20.875 12.6801 20.4522 14.235 19.6799 15.5925C17.7479 13.2099 14.7916 11.7125 11.5 11.7125C8.2087 11.7125 5.25311 13.2352 3.32148 15.5918C2.57224 14.2325 2.125 12.6532 2.125 11ZM7.75 7.0625C7.75 9.12517 9.43733 10.8125 11.5 10.8125C13.5627 10.8125 15.25 9.12517 15.25 7.0625C15.25 4.99983 13.5627 3.3125 11.5 3.3125C9.43733 3.3125 7.75 4.99983 7.75 7.0625ZM8.95 7.0625C8.95 5.66017 10.0977 4.5125 11.5 4.5125C12.9023 4.5125 14.05 5.66017 14.05 7.0625C14.05 8.46483 12.9023 9.6125 11.5 9.6125C10.0977 9.6125 8.95 8.46483 8.95 7.0625Z" fill="#919191" stroke="#919191" stroke-width="0.15"/>
</svg>
